<mxfile host="app.diagrams.net" modified="2024-05-14T13:50:39.367Z" agent="Mozilla/5.0 (Windows NT 10.0; Win64; x64) AppleWebKit/537.36 (KHTML, like Gecko) Chrome/124.0.0.0 Safari/537.36" etag="1Ek1blKXUu4vSOTpyf8q" version="24.4.0" type="device">
  <diagram id="C5RBs43oDa-KdzZeNtuy" name="Page-1">
    <mxGraphModel dx="880" dy="506" grid="1" gridSize="10" guides="1" tooltips="1" connect="1" arrows="1" fold="1" page="1" pageScale="1" pageWidth="827" pageHeight="1169" background="none" math="0" shadow="0">
      <root>
        <mxCell id="WIyWlLk6GJQsqaUBKTNV-0" />
        <mxCell id="WIyWlLk6GJQsqaUBKTNV-1" parent="WIyWlLk6GJQsqaUBKTNV-0" />
        <mxCell id="SacBXUsu6v04-Dpzo6fD-8" style="edgeStyle=orthogonalEdgeStyle;rounded=0;hachureGap=4;orthogonalLoop=1;jettySize=auto;html=1;fontFamily=Architects Daughter;fontSource=https%3A%2F%2Ffonts.googleapis.com%2Fcss%3Ffamily%3DArchitects%2BDaughter;" edge="1" parent="WIyWlLk6GJQsqaUBKTNV-1" source="SacBXUsu6v04-Dpzo6fD-0" target="SacBXUsu6v04-Dpzo6fD-7">
          <mxGeometry relative="1" as="geometry" />
        </mxCell>
        <mxCell id="SacBXUsu6v04-Dpzo6fD-0" value="&lt;font style=&quot;font-size: 14px;&quot;&gt;mulai&lt;/font&gt;" style="ellipse;whiteSpace=wrap;html=1;" vertex="1" parent="WIyWlLk6GJQsqaUBKTNV-1">
          <mxGeometry x="350" y="220" width="120" height="80" as="geometry" />
        </mxCell>
        <mxCell id="SacBXUsu6v04-Dpzo6fD-16" style="edgeStyle=orthogonalEdgeStyle;rounded=0;orthogonalLoop=1;jettySize=auto;html=1;entryX=0.5;entryY=0;entryDx=0;entryDy=0;" edge="1" parent="WIyWlLk6GJQsqaUBKTNV-1" source="SacBXUsu6v04-Dpzo6fD-1" target="SacBXUsu6v04-Dpzo6fD-15">
          <mxGeometry relative="1" as="geometry" />
        </mxCell>
        <mxCell id="SacBXUsu6v04-Dpzo6fD-18" style="edgeStyle=orthogonalEdgeStyle;rounded=0;orthogonalLoop=1;jettySize=auto;html=1;entryX=0;entryY=0.5;entryDx=0;entryDy=0;" edge="1" parent="WIyWlLk6GJQsqaUBKTNV-1" source="SacBXUsu6v04-Dpzo6fD-1" target="SacBXUsu6v04-Dpzo6fD-7">
          <mxGeometry relative="1" as="geometry">
            <Array as="points">
              <mxPoint x="303" y="820" />
              <mxPoint x="303" y="410" />
            </Array>
          </mxGeometry>
        </mxCell>
        <mxCell id="SacBXUsu6v04-Dpzo6fD-1" value="&lt;font style=&quot;font-size: 14px;&quot;&gt;input data pemilik dan hewan&lt;/font&gt;" style="shape=parallelogram;perimeter=parallelogramPerimeter;whiteSpace=wrap;html=1;fixedSize=1;" vertex="1" parent="WIyWlLk6GJQsqaUBKTNV-1">
          <mxGeometry x="323" y="780" width="174" height="80" as="geometry" />
        </mxCell>
        <mxCell id="SacBXUsu6v04-Dpzo6fD-11" style="edgeStyle=orthogonalEdgeStyle;rounded=0;hachureGap=4;orthogonalLoop=1;jettySize=auto;html=1;fontFamily=Architects Daughter;fontSource=https%3A%2F%2Ffonts.googleapis.com%2Fcss%3Ffamily%3DArchitects%2BDaughter;" edge="1" parent="WIyWlLk6GJQsqaUBKTNV-1" source="SacBXUsu6v04-Dpzo6fD-3" target="SacBXUsu6v04-Dpzo6fD-5">
          <mxGeometry relative="1" as="geometry" />
        </mxCell>
        <mxCell id="SacBXUsu6v04-Dpzo6fD-13" style="edgeStyle=orthogonalEdgeStyle;rounded=0;orthogonalLoop=1;jettySize=auto;html=1;entryX=0;entryY=0.5;entryDx=0;entryDy=0;" edge="1" parent="WIyWlLk6GJQsqaUBKTNV-1" source="SacBXUsu6v04-Dpzo6fD-3" target="SacBXUsu6v04-Dpzo6fD-4">
          <mxGeometry relative="1" as="geometry" />
        </mxCell>
        <mxCell id="SacBXUsu6v04-Dpzo6fD-3" value="&lt;font style=&quot;font-size: 14px;&quot; face=&quot;Helvetica&quot;&gt;pilihan jenis grooming&lt;/font&gt;" style="rhombus;whiteSpace=wrap;html=1;hachureGap=4;fontFamily=Architects Daughter;fontSource=https%3A%2F%2Ffonts.googleapis.com%2Fcss%3Ffamily%3DArchitects%2BDaughter;rounded=0;" vertex="1" parent="WIyWlLk6GJQsqaUBKTNV-1">
          <mxGeometry x="350" y="505" width="120" height="110" as="geometry" />
        </mxCell>
        <mxCell id="SacBXUsu6v04-Dpzo6fD-14" style="edgeStyle=orthogonalEdgeStyle;rounded=0;orthogonalLoop=1;jettySize=auto;html=1;entryX=1;entryY=0.5;entryDx=0;entryDy=0;" edge="1" parent="WIyWlLk6GJQsqaUBKTNV-1" source="SacBXUsu6v04-Dpzo6fD-4" target="SacBXUsu6v04-Dpzo6fD-1">
          <mxGeometry relative="1" as="geometry">
            <Array as="points">
              <mxPoint x="650" y="820" />
            </Array>
          </mxGeometry>
        </mxCell>
        <mxCell id="SacBXUsu6v04-Dpzo6fD-4" value="&lt;font face=&quot;Helvetica&quot;&gt;&lt;span style=&quot;font-size: 14px;&quot;&gt;grooming kering anjing&amp;nbsp;&lt;/span&gt;&lt;/font&gt;&lt;div&gt;&lt;font face=&quot;Helvetica&quot;&gt;&lt;span style=&quot;font-size: 14px;&quot;&gt;&lt;br&gt;&lt;/span&gt;&lt;/font&gt;&lt;/div&gt;" style="rounded=0;whiteSpace=wrap;html=1;hachureGap=4;fontFamily=Architects Daughter;fontSource=https%3A%2F%2Ffonts.googleapis.com%2Fcss%3Ffamily%3DArchitects%2BDaughter;" vertex="1" parent="WIyWlLk6GJQsqaUBKTNV-1">
          <mxGeometry x="590" y="530" width="120" height="60" as="geometry" />
        </mxCell>
        <mxCell id="SacBXUsu6v04-Dpzo6fD-12" style="edgeStyle=orthogonalEdgeStyle;rounded=0;orthogonalLoop=1;jettySize=auto;html=1;entryX=0.5;entryY=0;entryDx=0;entryDy=0;" edge="1" parent="WIyWlLk6GJQsqaUBKTNV-1" source="SacBXUsu6v04-Dpzo6fD-5" target="SacBXUsu6v04-Dpzo6fD-1">
          <mxGeometry relative="1" as="geometry" />
        </mxCell>
        <mxCell id="SacBXUsu6v04-Dpzo6fD-5" value="&lt;font style=&quot;font-size: 14px;&quot; face=&quot;Helvetica&quot;&gt;grooming basic kucing&lt;/font&gt;" style="rounded=0;whiteSpace=wrap;html=1;hachureGap=4;fontFamily=Architects Daughter;fontSource=https%3A%2F%2Ffonts.googleapis.com%2Fcss%3Ffamily%3DArchitects%2BDaughter;" vertex="1" parent="WIyWlLk6GJQsqaUBKTNV-1">
          <mxGeometry x="350" y="660" width="120" height="60" as="geometry" />
        </mxCell>
        <mxCell id="SacBXUsu6v04-Dpzo6fD-10" style="edgeStyle=orthogonalEdgeStyle;rounded=0;hachureGap=4;orthogonalLoop=1;jettySize=auto;html=1;fontFamily=Architects Daughter;fontSource=https%3A%2F%2Ffonts.googleapis.com%2Fcss%3Ffamily%3DArchitects%2BDaughter;" edge="1" parent="WIyWlLk6GJQsqaUBKTNV-1" source="SacBXUsu6v04-Dpzo6fD-7" target="SacBXUsu6v04-Dpzo6fD-3">
          <mxGeometry relative="1" as="geometry" />
        </mxCell>
        <mxCell id="SacBXUsu6v04-Dpzo6fD-7" value="&lt;font face=&quot;Helvetica&quot;&gt;&lt;span style=&quot;font-size: 14px;&quot;&gt;pilih jenis hewan&lt;/span&gt;&lt;/font&gt;" style="rhombus;whiteSpace=wrap;html=1;hachureGap=4;fontFamily=Architects Daughter;fontSource=https%3A%2F%2Ffonts.googleapis.com%2Fcss%3Ffamily%3DArchitects%2BDaughter;rounded=0;" vertex="1" parent="WIyWlLk6GJQsqaUBKTNV-1">
          <mxGeometry x="360" y="360" width="100" height="100" as="geometry" />
        </mxCell>
        <mxCell id="SacBXUsu6v04-Dpzo6fD-19" style="edgeStyle=orthogonalEdgeStyle;rounded=0;orthogonalLoop=1;jettySize=auto;html=1;entryX=0.5;entryY=0;entryDx=0;entryDy=0;" edge="1" parent="WIyWlLk6GJQsqaUBKTNV-1" source="SacBXUsu6v04-Dpzo6fD-15" target="SacBXUsu6v04-Dpzo6fD-17">
          <mxGeometry relative="1" as="geometry" />
        </mxCell>
        <mxCell id="SacBXUsu6v04-Dpzo6fD-15" value="cetak struk&amp;nbsp;" style="shape=parallelogram;perimeter=parallelogramPerimeter;whiteSpace=wrap;html=1;fixedSize=1;" vertex="1" parent="WIyWlLk6GJQsqaUBKTNV-1">
          <mxGeometry x="350" y="910" width="120" height="60" as="geometry" />
        </mxCell>
        <mxCell id="SacBXUsu6v04-Dpzo6fD-17" value="selesai" style="ellipse;whiteSpace=wrap;html=1;" vertex="1" parent="WIyWlLk6GJQsqaUBKTNV-1">
          <mxGeometry x="350" y="1030" width="120" height="80" as="geometry" />
        </mxCell>
        <mxCell id="SacBXUsu6v04-Dpzo6fD-20" value="jika terjadi perulangan maka yang di panggil hanya&lt;div&gt;&amp;nbsp;variable nama hewan dan kondisi hewan&lt;/div&gt;" style="text;html=1;align=center;verticalAlign=middle;resizable=0;points=[];autosize=1;strokeColor=none;fillColor=none;" vertex="1" parent="WIyWlLk6GJQsqaUBKTNV-1">
          <mxGeometry x="20" y="830" width="290" height="40" as="geometry" />
        </mxCell>
        <mxCell id="SacBXUsu6v04-Dpzo6fD-21" value="variabel:&lt;div&gt;nama pemilik, nama hewan, kondisi hewan, tanggal dan hari,alamat&lt;/div&gt;" style="text;html=1;align=center;verticalAlign=middle;resizable=0;points=[];autosize=1;strokeColor=none;fillColor=none;" vertex="1" parent="WIyWlLk6GJQsqaUBKTNV-1">
          <mxGeometry x="430" y="850" width="380" height="40" as="geometry" />
        </mxCell>
        <mxCell id="SacBXUsu6v04-Dpzo6fD-22" value="pilihan grooming + nampilin harga:&lt;div&gt;grooming kutu, jamur, basic, kering&lt;/div&gt;" style="text;html=1;align=center;verticalAlign=middle;resizable=0;points=[];autosize=1;strokeColor=none;fillColor=none;" vertex="1" parent="WIyWlLk6GJQsqaUBKTNV-1">
          <mxGeometry x="430" y="490" width="210" height="40" as="geometry" />
        </mxCell>
      </root>
    </mxGraphModel>
  </diagram>
</mxfile>
